<mxfile host="app.diagrams.net" modified="2024-02-15T02:10:57.207Z" agent="Mozilla/5.0 (Windows NT 10.0; Win64; x64) AppleWebKit/537.36 (KHTML, like Gecko) Chrome/123.0.0.0 Safari/537.36" etag="UI2vHa37Ml1opnW5Ca5Y" version="23.1.1" type="github" pages="3">
  <diagram name="Exercício 7" id="cViD2hHgw0PeuSOtFopX">
    <mxGraphModel dx="955" dy="446" grid="1" gridSize="10" guides="1" tooltips="1" connect="1" arrows="1" fold="1" page="1" pageScale="1" pageWidth="827" pageHeight="1169" math="0" shadow="0">
      <root>
        <mxCell id="0" />
        <mxCell id="1" parent="0" />
        <mxCell id="w6NW4HsJK8lRZk9CLlEC-3" value="" style="edgeStyle=orthogonalEdgeStyle;rounded=0;orthogonalLoop=1;jettySize=auto;html=1;" parent="1" source="w6NW4HsJK8lRZk9CLlEC-1" target="w6NW4HsJK8lRZk9CLlEC-2" edge="1">
          <mxGeometry relative="1" as="geometry" />
        </mxCell>
        <mxCell id="w6NW4HsJK8lRZk9CLlEC-1" value="" style="ellipse;whiteSpace=wrap;html=1;aspect=fixed;fillColor=#b1ddf0;strokeColor=#10739e;" parent="1" vertex="1">
          <mxGeometry x="40" y="100" width="40" height="40" as="geometry" />
        </mxCell>
        <mxCell id="w6NW4HsJK8lRZk9CLlEC-5" value="" style="edgeStyle=orthogonalEdgeStyle;rounded=0;orthogonalLoop=1;jettySize=auto;html=1;" parent="1" source="w6NW4HsJK8lRZk9CLlEC-2" target="w6NW4HsJK8lRZk9CLlEC-4" edge="1">
          <mxGeometry relative="1" as="geometry" />
        </mxCell>
        <mxCell id="w6NW4HsJK8lRZk9CLlEC-2" value="Ler Salário de Estagiário e Valor da Faculdade.&lt;br&gt;&lt;b&gt;(Sal_Est&amp;nbsp;&lt;/b&gt;e &lt;b&gt;Val_Fac)&lt;/b&gt;" style="whiteSpace=wrap;html=1;" parent="1" vertex="1">
          <mxGeometry x="120" y="80" width="120" height="80" as="geometry" />
        </mxCell>
        <mxCell id="w6NW4HsJK8lRZk9CLlEC-8" value="" style="edgeStyle=orthogonalEdgeStyle;rounded=0;orthogonalLoop=1;jettySize=auto;html=1;" parent="1" source="w6NW4HsJK8lRZk9CLlEC-4" target="w6NW4HsJK8lRZk9CLlEC-7" edge="1">
          <mxGeometry relative="1" as="geometry" />
        </mxCell>
        <mxCell id="w6NW4HsJK8lRZk9CLlEC-4" value="Calcular&amp;nbsp; Salário Líquido.&lt;br&gt;&lt;b&gt;(Sal_Liq = Sal_Est - Val_Fac)&lt;/b&gt;" style="whiteSpace=wrap;html=1;" parent="1" vertex="1">
          <mxGeometry x="320" y="80" width="120" height="80" as="geometry" />
        </mxCell>
        <mxCell id="w6NW4HsJK8lRZk9CLlEC-10" value="" style="edgeStyle=orthogonalEdgeStyle;rounded=0;orthogonalLoop=1;jettySize=auto;html=1;" parent="1" source="w6NW4HsJK8lRZk9CLlEC-7" target="w6NW4HsJK8lRZk9CLlEC-9" edge="1">
          <mxGeometry relative="1" as="geometry" />
        </mxCell>
        <mxCell id="w6NW4HsJK8lRZk9CLlEC-7" value="Calcular&amp;nbsp; Média Diária em 30 dias.&lt;br&gt;&lt;b&gt;Media = Sal_Liq / 30&lt;/b&gt;" style="whiteSpace=wrap;html=1;" parent="1" vertex="1">
          <mxGeometry x="520" y="80" width="120" height="80" as="geometry" />
        </mxCell>
        <mxCell id="r2Y3RzrMEeVNva1n7LEs-2" value="" style="edgeStyle=orthogonalEdgeStyle;rounded=0;orthogonalLoop=1;jettySize=auto;html=1;" edge="1" parent="1" source="w6NW4HsJK8lRZk9CLlEC-9" target="r2Y3RzrMEeVNva1n7LEs-1">
          <mxGeometry relative="1" as="geometry" />
        </mxCell>
        <mxCell id="r2Y3RzrMEeVNva1n7LEs-4" value="" style="edgeStyle=orthogonalEdgeStyle;rounded=0;orthogonalLoop=1;jettySize=auto;html=1;" edge="1" parent="1" source="w6NW4HsJK8lRZk9CLlEC-9" target="r2Y3RzrMEeVNva1n7LEs-3">
          <mxGeometry relative="1" as="geometry" />
        </mxCell>
        <mxCell id="w6NW4HsJK8lRZk9CLlEC-9" value="" style="rhombus;whiteSpace=wrap;html=1;" parent="1" vertex="1">
          <mxGeometry x="525" y="240" width="110" height="80" as="geometry" />
        </mxCell>
        <mxCell id="r2Y3RzrMEeVNva1n7LEs-33" style="edgeStyle=orthogonalEdgeStyle;rounded=0;orthogonalLoop=1;jettySize=auto;html=1;exitX=0.5;exitY=1;exitDx=0;exitDy=0;entryX=0;entryY=0.5;entryDx=0;entryDy=0;" edge="1" parent="1" source="r2Y3RzrMEeVNva1n7LEs-1" target="r2Y3RzrMEeVNva1n7LEs-6">
          <mxGeometry relative="1" as="geometry" />
        </mxCell>
        <mxCell id="r2Y3RzrMEeVNva1n7LEs-1" value="Exibir a mensagem&lt;br&gt;&lt;b&gt;&quot;#controletotal&quot;&lt;/b&gt;" style="whiteSpace=wrap;html=1;" vertex="1" parent="1">
          <mxGeometry x="520" y="400" width="120" height="80" as="geometry" />
        </mxCell>
        <mxCell id="r2Y3RzrMEeVNva1n7LEs-9" value="" style="edgeStyle=orthogonalEdgeStyle;rounded=0;orthogonalLoop=1;jettySize=auto;html=1;" edge="1" parent="1" source="r2Y3RzrMEeVNva1n7LEs-3" target="r2Y3RzrMEeVNva1n7LEs-8">
          <mxGeometry relative="1" as="geometry" />
        </mxCell>
        <mxCell id="bwQlZ4KXllNVxXxjRXmF-1" value="" style="edgeStyle=orthogonalEdgeStyle;rounded=0;orthogonalLoop=1;jettySize=auto;html=1;" edge="1" parent="1" source="r2Y3RzrMEeVNva1n7LEs-3" target="r2Y3RzrMEeVNva1n7LEs-14">
          <mxGeometry relative="1" as="geometry" />
        </mxCell>
        <mxCell id="r2Y3RzrMEeVNva1n7LEs-3" value="" style="rhombus;whiteSpace=wrap;html=1;" vertex="1" parent="1">
          <mxGeometry x="720" y="240" width="120" height="80" as="geometry" />
        </mxCell>
        <mxCell id="r2Y3RzrMEeVNva1n7LEs-5" value="&lt;b style=&quot;border-color: var(--border-color);&quot;&gt;Media &amp;lt; 15&lt;/b&gt;" style="text;html=1;strokeColor=none;fillColor=none;align=center;verticalAlign=middle;whiteSpace=wrap;rounded=0;" vertex="1" parent="1">
          <mxGeometry x="530" y="240" width="100" height="80" as="geometry" />
        </mxCell>
        <mxCell id="r2Y3RzrMEeVNva1n7LEs-6" value="" style="ellipse;whiteSpace=wrap;html=1;fillColor=#d0cee2;strokeColor=#56517e;" vertex="1" parent="1">
          <mxGeometry x="960" y="520" width="40" height="40" as="geometry" />
        </mxCell>
        <mxCell id="r2Y3RzrMEeVNva1n7LEs-8" value="Exibir a mensagem&lt;br style=&quot;border-color: var(--border-color);&quot;&gt;&lt;b style=&quot;border-color: var(--border-color);&quot;&gt;&quot;#ragazzonosabado&quot;&lt;/b&gt;" style="whiteSpace=wrap;html=1;" vertex="1" parent="1">
          <mxGeometry x="720" y="400" width="120" height="80" as="geometry" />
        </mxCell>
        <mxCell id="r2Y3RzrMEeVNva1n7LEs-11" value="&lt;div&gt;&lt;b&gt;15 &amp;lt;= Media &amp;lt;= 20&lt;/b&gt;&lt;/div&gt;" style="text;html=1;strokeColor=none;fillColor=none;align=center;verticalAlign=middle;whiteSpace=wrap;rounded=0;" vertex="1" parent="1">
          <mxGeometry x="715" y="240" width="130" height="80" as="geometry" />
        </mxCell>
        <mxCell id="r2Y3RzrMEeVNva1n7LEs-17" value="" style="edgeStyle=orthogonalEdgeStyle;rounded=0;orthogonalLoop=1;jettySize=auto;html=1;" edge="1" parent="1" source="r2Y3RzrMEeVNva1n7LEs-14" target="r2Y3RzrMEeVNva1n7LEs-16">
          <mxGeometry relative="1" as="geometry" />
        </mxCell>
        <mxCell id="r2Y3RzrMEeVNva1n7LEs-20" value="" style="edgeStyle=orthogonalEdgeStyle;rounded=0;orthogonalLoop=1;jettySize=auto;html=1;" edge="1" parent="1" source="r2Y3RzrMEeVNva1n7LEs-14" target="r2Y3RzrMEeVNva1n7LEs-19">
          <mxGeometry relative="1" as="geometry" />
        </mxCell>
        <mxCell id="r2Y3RzrMEeVNva1n7LEs-14" value="" style="rhombus;whiteSpace=wrap;html=1;" vertex="1" parent="1">
          <mxGeometry x="920" y="240" width="120" height="80" as="geometry" />
        </mxCell>
        <mxCell id="r2Y3RzrMEeVNva1n7LEs-37" style="edgeStyle=orthogonalEdgeStyle;rounded=0;orthogonalLoop=1;jettySize=auto;html=1;exitX=0.5;exitY=1;exitDx=0;exitDy=0;entryX=0.5;entryY=0;entryDx=0;entryDy=0;" edge="1" parent="1" source="r2Y3RzrMEeVNva1n7LEs-16" target="r2Y3RzrMEeVNva1n7LEs-6">
          <mxGeometry relative="1" as="geometry" />
        </mxCell>
        <mxCell id="r2Y3RzrMEeVNva1n7LEs-16" value="Exibir a mensagem&lt;br style=&quot;border-color: var(--border-color);&quot;&gt;&lt;b style=&quot;border-color: var(--border-color);&quot;&gt;&quot;#cinemanamorada&quot;&lt;/b&gt;" style="whiteSpace=wrap;html=1;" vertex="1" parent="1">
          <mxGeometry x="920" y="400" width="120" height="80" as="geometry" />
        </mxCell>
        <mxCell id="r2Y3RzrMEeVNva1n7LEs-18" value="&lt;div&gt;&lt;b&gt;20 &amp;lt; Media &amp;lt; 25&lt;/b&gt;&lt;/div&gt;" style="text;html=1;strokeColor=none;fillColor=none;align=center;verticalAlign=middle;whiteSpace=wrap;rounded=0;" vertex="1" parent="1">
          <mxGeometry x="915" y="240" width="130" height="80" as="geometry" />
        </mxCell>
        <mxCell id="r2Y3RzrMEeVNva1n7LEs-23" value="" style="edgeStyle=orthogonalEdgeStyle;rounded=0;orthogonalLoop=1;jettySize=auto;html=1;" edge="1" parent="1" source="r2Y3RzrMEeVNva1n7LEs-19" target="r2Y3RzrMEeVNva1n7LEs-22">
          <mxGeometry relative="1" as="geometry" />
        </mxCell>
        <mxCell id="r2Y3RzrMEeVNva1n7LEs-30" value="" style="edgeStyle=orthogonalEdgeStyle;rounded=0;orthogonalLoop=1;jettySize=auto;html=1;entryX=0.5;entryY=0;entryDx=0;entryDy=0;" edge="1" parent="1" source="r2Y3RzrMEeVNva1n7LEs-19" target="r2Y3RzrMEeVNva1n7LEs-29">
          <mxGeometry relative="1" as="geometry" />
        </mxCell>
        <mxCell id="r2Y3RzrMEeVNva1n7LEs-19" value="" style="rhombus;whiteSpace=wrap;html=1;" vertex="1" parent="1">
          <mxGeometry x="1120" y="240" width="120" height="80" as="geometry" />
        </mxCell>
        <mxCell id="r2Y3RzrMEeVNva1n7LEs-22" value="Exibir a mensagem&lt;br style=&quot;border-color: var(--border-color);&quot;&gt;&lt;b style=&quot;border-color: var(--border-color);&quot;&gt;&quot;#novogame&quot;&lt;/b&gt;" style="whiteSpace=wrap;html=1;" vertex="1" parent="1">
          <mxGeometry x="1120" y="400" width="120" height="80" as="geometry" />
        </mxCell>
        <mxCell id="r2Y3RzrMEeVNva1n7LEs-24" value="&lt;div&gt;&lt;b&gt;25 &amp;lt;= Media &amp;lt;= 30&lt;/b&gt;&lt;/div&gt;" style="text;html=1;strokeColor=none;fillColor=none;align=center;verticalAlign=middle;whiteSpace=wrap;rounded=0;" vertex="1" parent="1">
          <mxGeometry x="1115" y="240" width="130" height="80" as="geometry" />
        </mxCell>
        <mxCell id="r2Y3RzrMEeVNva1n7LEs-38" style="edgeStyle=orthogonalEdgeStyle;rounded=0;orthogonalLoop=1;jettySize=auto;html=1;exitX=0.5;exitY=1;exitDx=0;exitDy=0;entryX=1;entryY=0.5;entryDx=0;entryDy=0;" edge="1" parent="1" source="r2Y3RzrMEeVNva1n7LEs-29" target="r2Y3RzrMEeVNva1n7LEs-6">
          <mxGeometry relative="1" as="geometry" />
        </mxCell>
        <mxCell id="r2Y3RzrMEeVNva1n7LEs-29" value="Exibir a mensagem&lt;br style=&quot;border-color: var(--border-color);&quot;&gt;&lt;b style=&quot;border-color: var(--border-color);&quot;&gt;&quot;#tobonito&quot;&lt;/b&gt;" style="rounded=0;whiteSpace=wrap;html=1;" vertex="1" parent="1">
          <mxGeometry x="1330" y="400" width="120" height="80" as="geometry" />
        </mxCell>
        <mxCell id="r2Y3RzrMEeVNva1n7LEs-36" value="" style="endArrow=none;html=1;rounded=0;entryX=0.5;entryY=1;entryDx=0;entryDy=0;" edge="1" parent="1" target="r2Y3RzrMEeVNva1n7LEs-8">
          <mxGeometry width="50" height="50" relative="1" as="geometry">
            <mxPoint x="780" y="540" as="sourcePoint" />
            <mxPoint x="800" y="440" as="targetPoint" />
          </mxGeometry>
        </mxCell>
        <mxCell id="r2Y3RzrMEeVNva1n7LEs-39" value="" style="endArrow=none;html=1;rounded=0;entryX=0.5;entryY=1;entryDx=0;entryDy=0;" edge="1" parent="1" target="r2Y3RzrMEeVNva1n7LEs-22">
          <mxGeometry width="50" height="50" relative="1" as="geometry">
            <mxPoint x="1180" y="540" as="sourcePoint" />
            <mxPoint x="1180" y="400" as="targetPoint" />
          </mxGeometry>
        </mxCell>
        <mxCell id="r2Y3RzrMEeVNva1n7LEs-40" value="&lt;b&gt;FIM&lt;/b&gt;" style="text;html=1;strokeColor=none;fillColor=none;align=center;verticalAlign=middle;whiteSpace=wrap;rounded=0;" vertex="1" parent="1">
          <mxGeometry x="950" y="560" width="60" height="30" as="geometry" />
        </mxCell>
        <mxCell id="r2Y3RzrMEeVNva1n7LEs-41" value="&lt;b&gt;INICIO&lt;/b&gt;" style="text;html=1;strokeColor=none;fillColor=none;align=center;verticalAlign=middle;whiteSpace=wrap;rounded=0;" vertex="1" parent="1">
          <mxGeometry x="30" y="140" width="60" height="30" as="geometry" />
        </mxCell>
        <mxCell id="bwQlZ4KXllNVxXxjRXmF-3" value="&lt;b&gt;sim&lt;/b&gt;" style="text;html=1;strokeColor=none;fillColor=none;align=center;verticalAlign=middle;whiteSpace=wrap;rounded=0;" vertex="1" parent="1">
          <mxGeometry x="570" y="340" width="60" height="30" as="geometry" />
        </mxCell>
        <mxCell id="bwQlZ4KXllNVxXxjRXmF-4" value="&lt;b&gt;sim&lt;/b&gt;" style="text;html=1;strokeColor=none;fillColor=none;align=center;verticalAlign=middle;whiteSpace=wrap;rounded=0;" vertex="1" parent="1">
          <mxGeometry x="767" y="340" width="60" height="30" as="geometry" />
        </mxCell>
        <mxCell id="bwQlZ4KXllNVxXxjRXmF-6" value="&lt;b&gt;sim&lt;/b&gt;" style="text;html=1;strokeColor=none;fillColor=none;align=center;verticalAlign=middle;whiteSpace=wrap;rounded=0;" vertex="1" parent="1">
          <mxGeometry x="970" y="340" width="60" height="30" as="geometry" />
        </mxCell>
        <mxCell id="bwQlZ4KXllNVxXxjRXmF-7" value="&lt;b&gt;sim&lt;/b&gt;" style="text;html=1;strokeColor=none;fillColor=none;align=center;verticalAlign=middle;whiteSpace=wrap;rounded=0;" vertex="1" parent="1">
          <mxGeometry x="1170" y="340" width="60" height="30" as="geometry" />
        </mxCell>
        <mxCell id="bwQlZ4KXllNVxXxjRXmF-8" value="&lt;b&gt;não&lt;/b&gt;" style="text;html=1;strokeColor=none;fillColor=none;align=center;verticalAlign=middle;whiteSpace=wrap;rounded=0;" vertex="1" parent="1">
          <mxGeometry x="650" y="250" width="60" height="30" as="geometry" />
        </mxCell>
        <mxCell id="bwQlZ4KXllNVxXxjRXmF-9" value="&lt;b&gt;não&lt;/b&gt;" style="text;html=1;strokeColor=none;fillColor=none;align=center;verticalAlign=middle;whiteSpace=wrap;rounded=0;" vertex="1" parent="1">
          <mxGeometry x="850" y="250" width="60" height="30" as="geometry" />
        </mxCell>
        <mxCell id="bwQlZ4KXllNVxXxjRXmF-10" value="&lt;b&gt;não&lt;/b&gt;" style="text;html=1;strokeColor=none;fillColor=none;align=center;verticalAlign=middle;whiteSpace=wrap;rounded=0;" vertex="1" parent="1">
          <mxGeometry x="1050" y="250" width="60" height="30" as="geometry" />
        </mxCell>
        <mxCell id="bwQlZ4KXllNVxXxjRXmF-12" value="&lt;b&gt;não&lt;/b&gt;" style="text;html=1;strokeColor=none;fillColor=none;align=center;verticalAlign=middle;whiteSpace=wrap;rounded=0;" vertex="1" parent="1">
          <mxGeometry x="1280" y="250" width="60" height="30" as="geometry" />
        </mxCell>
      </root>
    </mxGraphModel>
  </diagram>
  <diagram id="qF2g9BaAubjTf7BXPP8n" name="Exercício 8">
    <mxGraphModel dx="955" dy="446" grid="1" gridSize="10" guides="1" tooltips="1" connect="1" arrows="1" fold="1" page="1" pageScale="1" pageWidth="827" pageHeight="1169" math="0" shadow="0">
      <root>
        <mxCell id="0" />
        <mxCell id="1" parent="0" />
        <mxCell id="1bZaXOqbiPZ1aQKhbhej-1" value="" style="edgeStyle=orthogonalEdgeStyle;rounded=0;orthogonalLoop=1;jettySize=auto;html=1;" edge="1" parent="1" source="1bZaXOqbiPZ1aQKhbhej-2" target="1bZaXOqbiPZ1aQKhbhej-3">
          <mxGeometry relative="1" as="geometry" />
        </mxCell>
        <mxCell id="1bZaXOqbiPZ1aQKhbhej-2" value="" style="ellipse;whiteSpace=wrap;html=1;aspect=fixed;fillColor=#b1ddf0;strokeColor=#10739e;" vertex="1" parent="1">
          <mxGeometry x="40" y="60" width="40" height="40" as="geometry" />
        </mxCell>
        <mxCell id="1bZaXOqbiPZ1aQKhbhej-6" value="" style="edgeStyle=orthogonalEdgeStyle;rounded=0;orthogonalLoop=1;jettySize=auto;html=1;" edge="1" parent="1" source="1bZaXOqbiPZ1aQKhbhej-3" target="1bZaXOqbiPZ1aQKhbhej-5">
          <mxGeometry relative="1" as="geometry" />
        </mxCell>
        <mxCell id="1bZaXOqbiPZ1aQKhbhej-3" value="&lt;b&gt;Recebe um golpe&lt;br&gt;&lt;/b&gt;" style="whiteSpace=wrap;html=1;" vertex="1" parent="1">
          <mxGeometry x="120" y="40" width="120" height="80" as="geometry" />
        </mxCell>
        <mxCell id="1bZaXOqbiPZ1aQKhbhej-4" value="&lt;b&gt;INICIO&lt;/b&gt;" style="text;html=1;strokeColor=none;fillColor=none;align=center;verticalAlign=middle;whiteSpace=wrap;rounded=0;" vertex="1" parent="1">
          <mxGeometry x="30" y="30" width="60" height="30" as="geometry" />
        </mxCell>
        <mxCell id="1bZaXOqbiPZ1aQKhbhej-14" value="" style="edgeStyle=orthogonalEdgeStyle;rounded=0;orthogonalLoop=1;jettySize=auto;html=1;" edge="1" parent="1" source="1bZaXOqbiPZ1aQKhbhej-5" target="1bZaXOqbiPZ1aQKhbhej-13">
          <mxGeometry relative="1" as="geometry" />
        </mxCell>
        <mxCell id="1bZaXOqbiPZ1aQKhbhej-5" value="&lt;b&gt;Uma parte do&lt;br&gt;corpo foi retirada?&lt;/b&gt;" style="rhombus;whiteSpace=wrap;html=1;" vertex="1" parent="1">
          <mxGeometry x="320" y="40" width="160" height="80" as="geometry" />
        </mxCell>
        <mxCell id="1bZaXOqbiPZ1aQKhbhej-10" value="" style="endArrow=none;html=1;rounded=0;entryX=0.5;entryY=1;entryDx=0;entryDy=0;" edge="1" parent="1" target="1bZaXOqbiPZ1aQKhbhej-5">
          <mxGeometry width="50" height="50" relative="1" as="geometry">
            <mxPoint x="400" y="200" as="sourcePoint" />
            <mxPoint x="440" y="160" as="targetPoint" />
          </mxGeometry>
        </mxCell>
        <mxCell id="1bZaXOqbiPZ1aQKhbhej-11" value="" style="endArrow=none;html=1;rounded=0;" edge="1" parent="1">
          <mxGeometry width="50" height="50" relative="1" as="geometry">
            <mxPoint x="180" y="200" as="sourcePoint" />
            <mxPoint x="400" y="200" as="targetPoint" />
          </mxGeometry>
        </mxCell>
        <mxCell id="1bZaXOqbiPZ1aQKhbhej-12" value="" style="endArrow=classic;html=1;rounded=0;entryX=0.5;entryY=1;entryDx=0;entryDy=0;" edge="1" parent="1" target="1bZaXOqbiPZ1aQKhbhej-3">
          <mxGeometry width="50" height="50" relative="1" as="geometry">
            <mxPoint x="180" y="200" as="sourcePoint" />
            <mxPoint x="440" y="160" as="targetPoint" />
          </mxGeometry>
        </mxCell>
        <mxCell id="1bZaXOqbiPZ1aQKhbhej-16" value="" style="edgeStyle=orthogonalEdgeStyle;rounded=0;orthogonalLoop=1;jettySize=auto;html=1;" edge="1" parent="1" source="1bZaXOqbiPZ1aQKhbhej-13" target="1bZaXOqbiPZ1aQKhbhej-15">
          <mxGeometry relative="1" as="geometry" />
        </mxCell>
        <mxCell id="1bZaXOqbiPZ1aQKhbhej-23" value="" style="edgeStyle=orthogonalEdgeStyle;rounded=0;orthogonalLoop=1;jettySize=auto;html=1;" edge="1" parent="1" source="1bZaXOqbiPZ1aQKhbhej-13" target="1bZaXOqbiPZ1aQKhbhej-22">
          <mxGeometry relative="1" as="geometry" />
        </mxCell>
        <mxCell id="1bZaXOqbiPZ1aQKhbhej-13" value="&lt;b&gt;Ki &amp;gt; 5%&lt;/b&gt;?" style="rhombus;whiteSpace=wrap;html=1;" vertex="1" parent="1">
          <mxGeometry x="560" y="40" width="160" height="80" as="geometry" />
        </mxCell>
        <mxCell id="1bZaXOqbiPZ1aQKhbhej-20" value="" style="edgeStyle=orthogonalEdgeStyle;rounded=0;orthogonalLoop=1;jettySize=auto;html=1;" edge="1" parent="1" source="1bZaXOqbiPZ1aQKhbhej-15">
          <mxGeometry relative="1" as="geometry">
            <mxPoint x="640" y="280" as="targetPoint" />
          </mxGeometry>
        </mxCell>
        <mxCell id="1bZaXOqbiPZ1aQKhbhej-15" value="&lt;b&gt;Morre&lt;/b&gt;" style="whiteSpace=wrap;html=1;" vertex="1" parent="1">
          <mxGeometry x="580" y="200" width="120" height="40" as="geometry" />
        </mxCell>
        <mxCell id="1bZaXOqbiPZ1aQKhbhej-17" value="" style="ellipse;whiteSpace=wrap;html=1;aspect=fixed;fillColor=#b1ddf0;strokeColor=#10739e;" vertex="1" parent="1">
          <mxGeometry x="620" y="280" width="40" height="40" as="geometry" />
        </mxCell>
        <mxCell id="1bZaXOqbiPZ1aQKhbhej-18" value="&lt;b&gt;FIM&lt;/b&gt;" style="text;html=1;strokeColor=none;fillColor=none;align=center;verticalAlign=middle;whiteSpace=wrap;rounded=0;" vertex="1" parent="1">
          <mxGeometry x="610" y="320" width="60" height="30" as="geometry" />
        </mxCell>
        <mxCell id="1bZaXOqbiPZ1aQKhbhej-22" value="&lt;b&gt;Regenera e perde 10% de Ki&lt;/b&gt;" style="whiteSpace=wrap;html=1;" vertex="1" parent="1">
          <mxGeometry x="800" y="40" width="120" height="80" as="geometry" />
        </mxCell>
        <mxCell id="1bZaXOqbiPZ1aQKhbhej-24" value="" style="endArrow=none;html=1;rounded=0;entryX=0.5;entryY=1;entryDx=0;entryDy=0;" edge="1" parent="1" target="1bZaXOqbiPZ1aQKhbhej-22">
          <mxGeometry width="50" height="50" relative="1" as="geometry">
            <mxPoint x="860" y="400" as="sourcePoint" />
            <mxPoint x="480" y="260" as="targetPoint" />
          </mxGeometry>
        </mxCell>
        <mxCell id="1bZaXOqbiPZ1aQKhbhej-25" value="" style="endArrow=none;html=1;rounded=0;" edge="1" parent="1">
          <mxGeometry width="50" height="50" relative="1" as="geometry">
            <mxPoint x="60" y="400" as="sourcePoint" />
            <mxPoint x="860" y="400" as="targetPoint" />
          </mxGeometry>
        </mxCell>
        <mxCell id="1bZaXOqbiPZ1aQKhbhej-26" value="" style="endArrow=classic;html=1;rounded=0;entryX=0.5;entryY=1;entryDx=0;entryDy=0;" edge="1" parent="1" target="1bZaXOqbiPZ1aQKhbhej-2">
          <mxGeometry width="50" height="50" relative="1" as="geometry">
            <mxPoint x="60" y="400" as="sourcePoint" />
            <mxPoint x="480" y="260" as="targetPoint" />
          </mxGeometry>
        </mxCell>
        <mxCell id="1bZaXOqbiPZ1aQKhbhej-29" value="&lt;b&gt;não&lt;/b&gt;" style="text;html=1;strokeColor=none;fillColor=none;align=center;verticalAlign=middle;whiteSpace=wrap;rounded=0;" vertex="1" parent="1">
          <mxGeometry x="384" y="140" width="60" height="30" as="geometry" />
        </mxCell>
        <mxCell id="1bZaXOqbiPZ1aQKhbhej-30" value="&lt;b&gt;não&lt;/b&gt;" style="text;html=1;strokeColor=none;fillColor=none;align=center;verticalAlign=middle;whiteSpace=wrap;rounded=0;" vertex="1" parent="1">
          <mxGeometry x="630" y="140" width="60" height="30" as="geometry" />
        </mxCell>
        <mxCell id="1bZaXOqbiPZ1aQKhbhej-31" value="&lt;b&gt;sim&lt;/b&gt;" style="text;html=1;strokeColor=none;fillColor=none;align=center;verticalAlign=middle;whiteSpace=wrap;rounded=0;" vertex="1" parent="1">
          <mxGeometry x="250" y="50" width="60" height="30" as="geometry" />
        </mxCell>
        <mxCell id="1bZaXOqbiPZ1aQKhbhej-32" value="&lt;b&gt;sim&lt;/b&gt;" style="text;html=1;strokeColor=none;fillColor=none;align=center;verticalAlign=middle;whiteSpace=wrap;rounded=0;" vertex="1" parent="1">
          <mxGeometry x="490" y="50" width="60" height="30" as="geometry" />
        </mxCell>
        <mxCell id="1bZaXOqbiPZ1aQKhbhej-33" value="&lt;b&gt;sim&lt;/b&gt;" style="text;html=1;strokeColor=none;fillColor=none;align=center;verticalAlign=middle;whiteSpace=wrap;rounded=0;" vertex="1" parent="1">
          <mxGeometry x="730" y="50" width="60" height="30" as="geometry" />
        </mxCell>
      </root>
    </mxGraphModel>
  </diagram>
  <diagram id="MxRDXuk77pKSjF4SgyQo" name="Exercício 9">
    <mxGraphModel dx="910" dy="425" grid="1" gridSize="10" guides="1" tooltips="1" connect="1" arrows="1" fold="1" page="1" pageScale="1" pageWidth="827" pageHeight="1169" math="0" shadow="0">
      <root>
        <mxCell id="0" />
        <mxCell id="1" parent="0" />
        <mxCell id="KdCwIkEU4Js6VQsLYKlv-1" value="" style="edgeStyle=orthogonalEdgeStyle;rounded=0;orthogonalLoop=1;jettySize=auto;html=1;" edge="1" parent="1" source="KdCwIkEU4Js6VQsLYKlv-2" target="KdCwIkEU4Js6VQsLYKlv-4">
          <mxGeometry relative="1" as="geometry" />
        </mxCell>
        <mxCell id="KdCwIkEU4Js6VQsLYKlv-2" value="" style="ellipse;whiteSpace=wrap;html=1;aspect=fixed;fillColor=#b1ddf0;strokeColor=#10739e;" vertex="1" parent="1">
          <mxGeometry x="40" y="60" width="40" height="40" as="geometry" />
        </mxCell>
        <mxCell id="I-jSRJ_XVLeLjshvRQOe-2" value="" style="edgeStyle=orthogonalEdgeStyle;rounded=0;orthogonalLoop=1;jettySize=auto;html=1;" edge="1" parent="1" source="KdCwIkEU4Js6VQsLYKlv-4" target="I-jSRJ_XVLeLjshvRQOe-1">
          <mxGeometry relative="1" as="geometry" />
        </mxCell>
        <mxCell id="KdCwIkEU4Js6VQsLYKlv-4" value="Ler a primeira nota&lt;br&gt;&lt;b&gt;(NT_A)&lt;/b&gt;" style="whiteSpace=wrap;html=1;" vertex="1" parent="1">
          <mxGeometry x="120" y="60" width="160" height="40" as="geometry" />
        </mxCell>
        <mxCell id="KdCwIkEU4Js6VQsLYKlv-6" value="&lt;b&gt;INICIO&lt;/b&gt;" style="text;html=1;strokeColor=none;fillColor=none;align=center;verticalAlign=middle;whiteSpace=wrap;rounded=0;" vertex="1" parent="1">
          <mxGeometry x="30" y="30" width="60" height="30" as="geometry" />
        </mxCell>
        <mxCell id="I-jSRJ_XVLeLjshvRQOe-4" value="" style="edgeStyle=orthogonalEdgeStyle;rounded=0;orthogonalLoop=1;jettySize=auto;html=1;exitX=0.5;exitY=1;exitDx=0;exitDy=0;" edge="1" parent="1" source="I-jSRJ_XVLeLjshvRQOe-1">
          <mxGeometry relative="1" as="geometry">
            <mxPoint x="460" y="120" as="sourcePoint" />
            <mxPoint x="420" y="200" as="targetPoint" />
            <Array as="points" />
          </mxGeometry>
        </mxCell>
        <mxCell id="I-jSRJ_XVLeLjshvRQOe-18" value="" style="edgeStyle=orthogonalEdgeStyle;rounded=0;orthogonalLoop=1;jettySize=auto;html=1;" edge="1" parent="1" source="I-jSRJ_XVLeLjshvRQOe-1" target="I-jSRJ_XVLeLjshvRQOe-5">
          <mxGeometry relative="1" as="geometry" />
        </mxCell>
        <mxCell id="I-jSRJ_XVLeLjshvRQOe-1" value="&lt;div style=&quot;&quot;&gt;&lt;b&gt;0 &amp;lt;= NT_A &amp;lt;= 10&lt;/b&gt;&lt;/div&gt;" style="rhombus;whiteSpace=wrap;html=1;" vertex="1" parent="1">
          <mxGeometry x="360" y="40" width="120" height="80" as="geometry" />
        </mxCell>
        <mxCell id="I-jSRJ_XVLeLjshvRQOe-11" style="edgeStyle=orthogonalEdgeStyle;rounded=0;orthogonalLoop=1;jettySize=auto;html=1;exitX=0.5;exitY=1;exitDx=0;exitDy=0;entryX=0.5;entryY=1;entryDx=0;entryDy=0;" edge="1" parent="1" source="I-jSRJ_XVLeLjshvRQOe-3" target="KdCwIkEU4Js6VQsLYKlv-4">
          <mxGeometry relative="1" as="geometry" />
        </mxCell>
        <mxCell id="I-jSRJ_XVLeLjshvRQOe-3" value="Exibir a mensagem&lt;br&gt;&lt;b&gt;&quot;A nota tem que ser entre 0 e 10&quot;&lt;/b&gt;" style="whiteSpace=wrap;html=1;" vertex="1" parent="1">
          <mxGeometry x="360" y="200" width="120" height="80" as="geometry" />
        </mxCell>
        <mxCell id="I-jSRJ_XVLeLjshvRQOe-8" value="" style="edgeStyle=orthogonalEdgeStyle;rounded=0;orthogonalLoop=1;jettySize=auto;html=1;" edge="1" parent="1" source="I-jSRJ_XVLeLjshvRQOe-5" target="I-jSRJ_XVLeLjshvRQOe-7">
          <mxGeometry relative="1" as="geometry" />
        </mxCell>
        <mxCell id="I-jSRJ_XVLeLjshvRQOe-5" value="Ler a segunda nota&lt;br style=&quot;border-color: var(--border-color);&quot;&gt;&lt;b style=&quot;border-color: var(--border-color);&quot;&gt;(NT_B)&lt;/b&gt;" style="whiteSpace=wrap;html=1;" vertex="1" parent="1">
          <mxGeometry x="560" y="60" width="160" height="40" as="geometry" />
        </mxCell>
        <mxCell id="I-jSRJ_XVLeLjshvRQOe-10" value="" style="edgeStyle=orthogonalEdgeStyle;rounded=0;orthogonalLoop=1;jettySize=auto;html=1;exitX=1;exitY=0.5;exitDx=0;exitDy=0;" edge="1" parent="1" source="I-jSRJ_XVLeLjshvRQOe-7" target="I-jSRJ_XVLeLjshvRQOe-9">
          <mxGeometry relative="1" as="geometry">
            <Array as="points">
              <mxPoint x="860" y="240" />
            </Array>
          </mxGeometry>
        </mxCell>
        <mxCell id="I-jSRJ_XVLeLjshvRQOe-24" value="" style="edgeStyle=orthogonalEdgeStyle;rounded=0;orthogonalLoop=1;jettySize=auto;html=1;" edge="1" parent="1" source="I-jSRJ_XVLeLjshvRQOe-7" target="I-jSRJ_XVLeLjshvRQOe-23">
          <mxGeometry relative="1" as="geometry" />
        </mxCell>
        <mxCell id="I-jSRJ_XVLeLjshvRQOe-7" value="&lt;b style=&quot;border-color: var(--border-color);&quot;&gt;0 &amp;lt;= NT_B &amp;lt;= 10&lt;/b&gt;" style="rhombus;whiteSpace=wrap;html=1;direction=south;" vertex="1" parent="1">
          <mxGeometry x="800" y="40" width="120" height="80" as="geometry" />
        </mxCell>
        <mxCell id="I-jSRJ_XVLeLjshvRQOe-9" value="Exibir a mensagem&lt;br style=&quot;border-color: var(--border-color);&quot;&gt;&lt;b style=&quot;border-color: var(--border-color);&quot;&gt;&quot;A nota tem que ser entre 0 e 10&quot;&lt;/b&gt;" style="whiteSpace=wrap;html=1;" vertex="1" parent="1">
          <mxGeometry x="800" y="200" width="120" height="80" as="geometry" />
        </mxCell>
        <mxCell id="I-jSRJ_XVLeLjshvRQOe-13" value="" style="endArrow=none;html=1;rounded=0;entryX=0.5;entryY=1;entryDx=0;entryDy=0;" edge="1" parent="1" target="I-jSRJ_XVLeLjshvRQOe-9">
          <mxGeometry width="50" height="50" relative="1" as="geometry">
            <mxPoint x="680" y="320" as="sourcePoint" />
            <mxPoint x="659.5" y="280" as="targetPoint" />
            <Array as="points">
              <mxPoint x="700" y="320" />
              <mxPoint x="720" y="320" />
              <mxPoint x="760" y="320" />
              <mxPoint x="780" y="320" />
              <mxPoint x="860" y="320" />
            </Array>
          </mxGeometry>
        </mxCell>
        <mxCell id="I-jSRJ_XVLeLjshvRQOe-14" value="" style="endArrow=none;html=1;rounded=0;" edge="1" parent="1">
          <mxGeometry width="50" height="50" relative="1" as="geometry">
            <mxPoint x="340" y="320" as="sourcePoint" />
            <mxPoint x="680" y="320" as="targetPoint" />
            <Array as="points">
              <mxPoint x="500" y="320" />
            </Array>
          </mxGeometry>
        </mxCell>
        <mxCell id="I-jSRJ_XVLeLjshvRQOe-15" value="" style="endArrow=none;html=1;rounded=0;" edge="1" parent="1">
          <mxGeometry width="50" height="50" relative="1" as="geometry">
            <mxPoint x="200" y="320" as="sourcePoint" />
            <mxPoint x="340" y="320" as="targetPoint" />
          </mxGeometry>
        </mxCell>
        <mxCell id="I-jSRJ_XVLeLjshvRQOe-16" value="" style="endArrow=none;html=1;rounded=0;" edge="1" parent="1">
          <mxGeometry width="50" height="50" relative="1" as="geometry">
            <mxPoint x="200" y="320" as="sourcePoint" />
            <mxPoint x="200" y="300" as="targetPoint" />
          </mxGeometry>
        </mxCell>
        <mxCell id="I-jSRJ_XVLeLjshvRQOe-19" value="&lt;b&gt;não&lt;/b&gt;" style="text;html=1;strokeColor=none;fillColor=none;align=center;verticalAlign=middle;whiteSpace=wrap;rounded=0;" vertex="1" parent="1">
          <mxGeometry x="370" y="140" width="60" height="30" as="geometry" />
        </mxCell>
        <mxCell id="I-jSRJ_XVLeLjshvRQOe-20" value="&lt;b&gt;sim&lt;/b&gt;" style="text;html=1;strokeColor=none;fillColor=none;align=center;verticalAlign=middle;whiteSpace=wrap;rounded=0;" vertex="1" parent="1">
          <mxGeometry x="490" y="50" width="60" height="30" as="geometry" />
        </mxCell>
        <mxCell id="I-jSRJ_XVLeLjshvRQOe-21" value="&lt;b&gt;sim&lt;/b&gt;" style="text;html=1;strokeColor=none;fillColor=none;align=center;verticalAlign=middle;whiteSpace=wrap;rounded=0;" vertex="1" parent="1">
          <mxGeometry x="730" y="50" width="60" height="30" as="geometry" />
        </mxCell>
        <mxCell id="I-jSRJ_XVLeLjshvRQOe-22" value="&lt;b&gt;não&lt;/b&gt;" style="text;html=1;strokeColor=none;fillColor=none;align=center;verticalAlign=middle;whiteSpace=wrap;rounded=0;" vertex="1" parent="1">
          <mxGeometry x="810" y="140" width="60" height="30" as="geometry" />
        </mxCell>
        <mxCell id="I-jSRJ_XVLeLjshvRQOe-26" value="" style="edgeStyle=orthogonalEdgeStyle;rounded=0;orthogonalLoop=1;jettySize=auto;html=1;" edge="1" parent="1" source="I-jSRJ_XVLeLjshvRQOe-23" target="I-jSRJ_XVLeLjshvRQOe-25">
          <mxGeometry relative="1" as="geometry" />
        </mxCell>
        <mxCell id="I-jSRJ_XVLeLjshvRQOe-23" value="Ler a frequencia em aula&lt;br&gt;&lt;b&gt;(FREQ)&lt;/b&gt;" style="whiteSpace=wrap;html=1;" vertex="1" parent="1">
          <mxGeometry x="1000" y="60" width="160" height="40" as="geometry" />
        </mxCell>
        <mxCell id="I-jSRJ_XVLeLjshvRQOe-28" value="" style="edgeStyle=orthogonalEdgeStyle;rounded=0;orthogonalLoop=1;jettySize=auto;html=1;" edge="1" parent="1" source="I-jSRJ_XVLeLjshvRQOe-25" target="I-jSRJ_XVLeLjshvRQOe-27">
          <mxGeometry relative="1" as="geometry" />
        </mxCell>
        <mxCell id="I-jSRJ_XVLeLjshvRQOe-34" value="" style="edgeStyle=orthogonalEdgeStyle;rounded=0;orthogonalLoop=1;jettySize=auto;html=1;" edge="1" parent="1" source="I-jSRJ_XVLeLjshvRQOe-25" target="I-jSRJ_XVLeLjshvRQOe-33">
          <mxGeometry relative="1" as="geometry" />
        </mxCell>
        <mxCell id="I-jSRJ_XVLeLjshvRQOe-25" value="&lt;b style=&quot;border-color: var(--border-color);&quot;&gt;0 &amp;lt;= FREQ &amp;lt;= 100&lt;/b&gt;" style="rhombus;whiteSpace=wrap;html=1;direction=south;" vertex="1" parent="1">
          <mxGeometry x="1241" y="40" width="120" height="80" as="geometry" />
        </mxCell>
        <mxCell id="I-jSRJ_XVLeLjshvRQOe-30" style="edgeStyle=orthogonalEdgeStyle;rounded=0;orthogonalLoop=1;jettySize=auto;html=1;exitX=0.5;exitY=1;exitDx=0;exitDy=0;entryX=0.5;entryY=1;entryDx=0;entryDy=0;" edge="1" parent="1" source="I-jSRJ_XVLeLjshvRQOe-27" target="I-jSRJ_XVLeLjshvRQOe-23">
          <mxGeometry relative="1" as="geometry" />
        </mxCell>
        <mxCell id="I-jSRJ_XVLeLjshvRQOe-27" value="Exibir a mensagem&lt;br style=&quot;border-color: var(--border-color);&quot;&gt;&lt;b style=&quot;border-color: var(--border-color);&quot;&gt;&quot;A frequencia em aula tem que ser entre 0 e 100&quot;&lt;/b&gt;" style="whiteSpace=wrap;html=1;" vertex="1" parent="1">
          <mxGeometry x="1240.5" y="200" width="120" height="80" as="geometry" />
        </mxCell>
        <mxCell id="I-jSRJ_XVLeLjshvRQOe-29" value="&lt;b&gt;não&lt;/b&gt;" style="text;html=1;strokeColor=none;fillColor=none;align=center;verticalAlign=middle;whiteSpace=wrap;rounded=0;" vertex="1" parent="1">
          <mxGeometry x="1250" y="140" width="60" height="30" as="geometry" />
        </mxCell>
        <mxCell id="I-jSRJ_XVLeLjshvRQOe-36" value="" style="edgeStyle=orthogonalEdgeStyle;rounded=0;orthogonalLoop=1;jettySize=auto;html=1;" edge="1" parent="1" source="I-jSRJ_XVLeLjshvRQOe-33" target="I-jSRJ_XVLeLjshvRQOe-35">
          <mxGeometry relative="1" as="geometry" />
        </mxCell>
        <mxCell id="I-jSRJ_XVLeLjshvRQOe-33" value="Calcular a media&lt;br&gt;&lt;b&gt;(MED = (NOT_A + NOT_B)/2)&lt;/b&gt;" style="whiteSpace=wrap;html=1;" vertex="1" parent="1">
          <mxGeometry x="1440" y="60" width="160" height="40" as="geometry" />
        </mxCell>
        <mxCell id="I-jSRJ_XVLeLjshvRQOe-40" value="" style="edgeStyle=orthogonalEdgeStyle;rounded=0;orthogonalLoop=1;jettySize=auto;html=1;" edge="1" parent="1" source="I-jSRJ_XVLeLjshvRQOe-35" target="I-jSRJ_XVLeLjshvRQOe-39">
          <mxGeometry relative="1" as="geometry" />
        </mxCell>
        <mxCell id="I-jSRJ_XVLeLjshvRQOe-35" value="Exibir a media&lt;br&gt;&lt;b&gt;(MED)&lt;/b&gt;" style="whiteSpace=wrap;html=1;" vertex="1" parent="1">
          <mxGeometry x="1440" y="180" width="160" height="40" as="geometry" />
        </mxCell>
        <mxCell id="I-jSRJ_XVLeLjshvRQOe-43" value="" style="edgeStyle=orthogonalEdgeStyle;rounded=0;orthogonalLoop=1;jettySize=auto;html=1;" edge="1" parent="1" source="I-jSRJ_XVLeLjshvRQOe-39" target="I-jSRJ_XVLeLjshvRQOe-42">
          <mxGeometry relative="1" as="geometry" />
        </mxCell>
        <mxCell id="I-jSRJ_XVLeLjshvRQOe-39" value="&lt;b style=&quot;border-color: var(--border-color);&quot;&gt;MED &amp;gt;= 6&amp;nbsp;&lt;br&gt;e&lt;br&gt;FREQ &amp;gt;= 70&lt;br&gt;&lt;/b&gt;" style="rhombus;whiteSpace=wrap;html=1;direction=south;" vertex="1" parent="1">
          <mxGeometry x="1460" y="300" width="120" height="80" as="geometry" />
        </mxCell>
        <mxCell id="I-jSRJ_XVLeLjshvRQOe-53" style="edgeStyle=orthogonalEdgeStyle;rounded=0;orthogonalLoop=1;jettySize=auto;html=1;exitX=0.5;exitY=1;exitDx=0;exitDy=0;" edge="1" parent="1" source="I-jSRJ_XVLeLjshvRQOe-41">
          <mxGeometry relative="1" as="geometry">
            <mxPoint x="1520" y="660" as="targetPoint" />
          </mxGeometry>
        </mxCell>
        <mxCell id="I-jSRJ_XVLeLjshvRQOe-41" value="Exibir a mensagem&lt;br style=&quot;border-color: var(--border-color);&quot;&gt;&lt;b style=&quot;border-color: var(--border-color);&quot;&gt;&quot;Parabéns, aprovado&quot;&lt;/b&gt;" style="whiteSpace=wrap;html=1;" vertex="1" parent="1">
          <mxGeometry x="1361" y="460" width="120" height="80" as="geometry" />
        </mxCell>
        <mxCell id="I-jSRJ_XVLeLjshvRQOe-52" style="edgeStyle=orthogonalEdgeStyle;rounded=0;orthogonalLoop=1;jettySize=auto;html=1;exitX=0.5;exitY=1;exitDx=0;exitDy=0;entryX=0.5;entryY=0;entryDx=0;entryDy=0;" edge="1" parent="1" source="I-jSRJ_XVLeLjshvRQOe-42" target="I-jSRJ_XVLeLjshvRQOe-51">
          <mxGeometry relative="1" as="geometry" />
        </mxCell>
        <mxCell id="I-jSRJ_XVLeLjshvRQOe-42" value="Exibir a mensagem&lt;br style=&quot;border-color: var(--border-color);&quot;&gt;&lt;b style=&quot;border-color: var(--border-color);&quot;&gt;&quot;Infelizmente, reprovado&quot;&lt;/b&gt;" style="whiteSpace=wrap;html=1;" vertex="1" parent="1">
          <mxGeometry x="1520" y="460" width="120" height="80" as="geometry" />
        </mxCell>
        <mxCell id="I-jSRJ_XVLeLjshvRQOe-44" value="" style="endArrow=classic;html=1;rounded=0;entryX=0.5;entryY=0;entryDx=0;entryDy=0;" edge="1" parent="1" target="I-jSRJ_XVLeLjshvRQOe-41">
          <mxGeometry width="50" height="50" relative="1" as="geometry">
            <mxPoint x="1420" y="420" as="sourcePoint" />
            <mxPoint x="1520" y="370" as="targetPoint" />
          </mxGeometry>
        </mxCell>
        <mxCell id="I-jSRJ_XVLeLjshvRQOe-45" value="" style="endArrow=none;html=1;rounded=0;" edge="1" parent="1">
          <mxGeometry width="50" height="50" relative="1" as="geometry">
            <mxPoint x="1420" y="420" as="sourcePoint" />
            <mxPoint x="1520" y="420" as="targetPoint" />
          </mxGeometry>
        </mxCell>
        <mxCell id="I-jSRJ_XVLeLjshvRQOe-46" value="&lt;b&gt;não&lt;/b&gt;" style="text;html=1;strokeColor=none;fillColor=none;align=center;verticalAlign=middle;whiteSpace=wrap;rounded=0;" vertex="1" parent="1">
          <mxGeometry x="1540" y="390" width="60" height="30" as="geometry" />
        </mxCell>
        <mxCell id="I-jSRJ_XVLeLjshvRQOe-48" value="&lt;b&gt;sim&lt;/b&gt;" style="text;html=1;strokeColor=none;fillColor=none;align=center;verticalAlign=middle;whiteSpace=wrap;rounded=0;" vertex="1" parent="1">
          <mxGeometry x="930" y="50" width="60" height="30" as="geometry" />
        </mxCell>
        <mxCell id="I-jSRJ_XVLeLjshvRQOe-49" value="&lt;b&gt;sim&lt;/b&gt;" style="text;html=1;strokeColor=none;fillColor=none;align=center;verticalAlign=middle;whiteSpace=wrap;rounded=0;" vertex="1" parent="1">
          <mxGeometry x="1370" y="50" width="60" height="30" as="geometry" />
        </mxCell>
        <mxCell id="I-jSRJ_XVLeLjshvRQOe-50" value="&lt;b&gt;sim&lt;/b&gt;" style="text;html=1;strokeColor=none;fillColor=none;align=center;verticalAlign=middle;whiteSpace=wrap;rounded=0;" vertex="1" parent="1">
          <mxGeometry x="1430" y="390" width="60" height="30" as="geometry" />
        </mxCell>
        <mxCell id="I-jSRJ_XVLeLjshvRQOe-55" value="" style="edgeStyle=orthogonalEdgeStyle;rounded=0;orthogonalLoop=1;jettySize=auto;html=1;" edge="1" parent="1" source="I-jSRJ_XVLeLjshvRQOe-51" target="I-jSRJ_XVLeLjshvRQOe-54">
          <mxGeometry relative="1" as="geometry" />
        </mxCell>
        <mxCell id="I-jSRJ_XVLeLjshvRQOe-51" value="Pergunte se será cadastrado um novo aluno" style="whiteSpace=wrap;html=1;" vertex="1" parent="1">
          <mxGeometry x="1440" y="660" width="160" height="40" as="geometry" />
        </mxCell>
        <mxCell id="I-jSRJ_XVLeLjshvRQOe-57" style="edgeStyle=orthogonalEdgeStyle;rounded=0;orthogonalLoop=1;jettySize=auto;html=1;exitX=0.5;exitY=1;exitDx=0;exitDy=0;entryX=0.5;entryY=1;entryDx=0;entryDy=0;" edge="1" parent="1" source="I-jSRJ_XVLeLjshvRQOe-54" target="KdCwIkEU4Js6VQsLYKlv-2">
          <mxGeometry relative="1" as="geometry" />
        </mxCell>
        <mxCell id="I-jSRJ_XVLeLjshvRQOe-60" value="" style="edgeStyle=orthogonalEdgeStyle;rounded=0;orthogonalLoop=1;jettySize=auto;html=1;" edge="1" parent="1" source="I-jSRJ_XVLeLjshvRQOe-54" target="I-jSRJ_XVLeLjshvRQOe-59">
          <mxGeometry relative="1" as="geometry" />
        </mxCell>
        <mxCell id="I-jSRJ_XVLeLjshvRQOe-54" value="A resposta é&amp;nbsp;&lt;br&gt;&lt;b&gt;&quot;Sim&quot;&lt;/b&gt;?" style="rhombus;whiteSpace=wrap;html=1;direction=south;" vertex="1" parent="1">
          <mxGeometry x="1241" y="640" width="120" height="80" as="geometry" />
        </mxCell>
        <mxCell id="I-jSRJ_XVLeLjshvRQOe-58" value="&lt;b&gt;sim&lt;/b&gt;" style="text;html=1;strokeColor=none;fillColor=none;align=center;verticalAlign=middle;whiteSpace=wrap;rounded=0;" vertex="1" parent="1">
          <mxGeometry x="1181" y="650" width="60" height="30" as="geometry" />
        </mxCell>
        <mxCell id="I-jSRJ_XVLeLjshvRQOe-59" value="" style="ellipse;whiteSpace=wrap;html=1;fillColor=#d0cee2;strokeColor=#56517e;" vertex="1" parent="1">
          <mxGeometry x="1281" y="800" width="40" height="40" as="geometry" />
        </mxCell>
        <mxCell id="I-jSRJ_XVLeLjshvRQOe-61" value="&lt;b&gt;FIM&lt;/b&gt;" style="text;html=1;strokeColor=none;fillColor=none;align=center;verticalAlign=middle;whiteSpace=wrap;rounded=0;" vertex="1" parent="1">
          <mxGeometry x="1271" y="840" width="60" height="30" as="geometry" />
        </mxCell>
        <mxCell id="I-jSRJ_XVLeLjshvRQOe-62" value="&lt;b&gt;não&lt;/b&gt;" style="text;html=1;strokeColor=none;fillColor=none;align=center;verticalAlign=middle;whiteSpace=wrap;rounded=0;" vertex="1" parent="1">
          <mxGeometry x="1290" y="740" width="60" height="30" as="geometry" />
        </mxCell>
      </root>
    </mxGraphModel>
  </diagram>
</mxfile>
